<svg version="1.1" id="Layer_1" xmlns="http://www.w3.org/2000/svg" xmlns:xlink="http://www.w3.org/1999/xlink" x="0px" y="0px"
	 width="100%" viewBox="0 0 500 500" enable-background="new 0 0 500 500" xml:space="preserve">
<path fill="#000000" opacity="1.000000" stroke="none" 
	d="
M288.000000,501.000000 
	C192.000015,501.000000 96.500046,501.000000 1.000051,501.000000 
	C1.000034,334.333405 1.000034,167.666794 1.000017,1.000141 
	C167.666565,1.000094 334.333130,1.000094 500.999756,1.000047 
	C500.999847,167.666519 500.999847,334.333038 500.999939,500.999786 
	C430.166656,501.000000 359.333344,501.000000 288.000000,501.000000 
M257.294373,259.014160 
	C252.351471,258.226105 247.408569,257.438080 242.465668,256.650024 
	C242.170380,257.212646 241.875076,257.775238 241.579773,258.337860 
	C242.469650,259.220001 243.218597,260.564148 244.278900,260.887604 
	C246.449432,261.549683 248.796158,261.612732 251.054199,262.013367 
	C256.744904,263.023071 262.495209,263.927856 267.110535,268.757843 
	C257.358185,274.800476 247.172592,275.379822 236.595779,274.849670 
	C239.090988,264.274994 241.413300,253.908615 244.083679,243.632675 
	C244.528595,241.920593 246.217270,239.724213 247.790237,239.238678 
	C262.252625,234.774429 272.997040,215.682846 270.354614,200.280289 
	C267.618835,184.333725 252.625671,170.078796 235.990707,169.990982 
	C215.457993,169.882614 196.662094,186.827682 199.948288,210.129150 
	C201.993011,224.627625 210.067032,234.119278 223.285522,239.711060 
	C224.309814,240.144363 225.679306,241.011261 225.895706,241.914474 
	C228.506088,252.809784 230.929306,263.749939 233.413544,274.732269 
	C218.836044,275.759918 207.723312,273.053558 203.954071,267.410278 
	C210.919601,261.687408 219.931366,262.728088 228.916504,260.126709 
	C227.415192,258.773315 226.305862,257.064941 225.560425,257.211243 
	C218.376572,258.620819 211.150497,260.010040 204.177383,262.179352 
	C202.107651,262.823212 199.537521,265.885925 199.496246,267.887665 
	C199.455170,269.880371 201.968445,272.401245 203.974014,273.832520 
	C206.163956,275.395355 208.996704,276.181763 211.653091,276.945435 
	C224.014740,280.499390 236.724762,279.182343 249.231720,278.685028 
	C255.326569,278.442688 261.547272,275.734772 267.255890,273.141205 
	C272.066193,270.955811 272.347748,267.206573 268.184021,263.919464 
	C265.335205,261.670410 261.510498,260.657501 257.294373,259.014160 
M228.725067,281.998810 
	C219.743591,280.992371 210.673935,280.460785 201.811264,278.814667 
	C195.775940,277.693695 189.917892,275.279297 184.221741,272.872498 
	C182.455460,272.126190 180.569260,269.570221 180.441544,267.724854 
	C180.345383,266.335266 182.723923,264.321716 184.436142,263.364105 
	C187.112183,261.867462 190.071274,260.640442 193.060806,259.985779 
	C201.514847,258.134430 210.061462,256.708313 218.529388,254.915283 
	C219.910797,254.622787 221.077560,253.316544 222.343536,252.478851 
	C222.056244,251.894562 221.768936,251.310257 221.481644,250.725952 
	C217.090210,251.150879 212.678818,251.430618 208.311462,252.030746 
	C199.019318,253.307587 189.897141,255.319016 181.699814,260.134003 
	C175.813843,263.591309 174.253662,269.922363 178.548416,273.648315 
	C181.200500,275.949158 184.547760,277.650146 187.842773,278.973297 
	C201.651016,284.518188 216.368942,285.277191 230.922470,285.793030 
	C241.596359,286.171417 252.439255,285.342957 263.018463,283.778534 
	C272.615326,282.359344 282.517700,280.976318 290.526489,274.276672 
	C295.187531,270.377563 295.576965,264.161926 290.278412,261.233551 
	C285.340698,258.504639 279.933228,256.286377 274.462708,254.939148 
	C265.970947,252.847946 257.250214,251.686569 248.626526,250.131012 
	C248.288361,250.852448 247.950195,251.573883 247.612030,252.295319 
	C248.478119,253.188629 249.241684,254.701782 250.228531,254.865021 
	C253.954712,255.481354 257.898468,255.126816 261.496033,256.107178 
	C270.099518,258.451630 278.759247,260.844299 286.984650,264.220367 
	C291.493896,266.071198 290.959045,269.792267 286.464752,272.149780 
	C283.711365,273.594055 280.898865,275.001160 277.974060,276.030487 
	C262.325195,281.538025 246.033966,282.046021 228.725067,281.998810 
M366.064636,238.380341 
	C366.690796,240.027191 367.316956,241.674026 368.072388,243.660889 
	C367.019989,243.747742 366.262390,244.054398 365.806610,243.806396 
	C363.617432,242.615173 362.995178,232.888412 365.128143,231.670364 
	C365.780609,231.297745 367.158386,232.106583 368.169098,232.471191 
	C369.602753,232.988419 371.004028,233.595306 373.128235,234.448792 
	C370.852051,227.027725 370.445221,226.709198 364.789490,227.002625 
	C361.048096,227.196732 359.039490,230.746262 359.001373,237.231293 
	C358.960266,244.225159 360.861115,247.785400 364.749573,247.997665 
	C371.430115,248.362366 373.693878,245.283508 372.392822,236.909180 
	C370.374847,237.121368 368.316406,237.337814 366.064636,238.380341 
M401.627136,247.996750 
	C403.026581,247.876755 404.426056,247.756760 405.728943,247.645035 
	C405.728943,240.520981 405.728943,233.937561 405.728943,227.383331 
	C400.008606,225.928726 403.056580,230.981873 401.514496,232.533066 
	C396.027069,233.467438 393.453278,235.963501 394.212585,240.767761 
	C394.756866,244.211838 395.009827,248.837631 401.627136,247.996750 
M347.238007,233.020569 
	C345.039825,233.246597 343.942871,232.587204 343.867706,230.049438 
	C343.833618,228.898422 342.363251,227.789948 341.544434,226.662170 
	C341.132965,226.936447 340.721466,227.210709 340.309998,227.484985 
	C340.309998,234.228210 340.309998,240.971436 340.309998,247.657288 
	C345.232849,248.811234 343.754547,245.308456 343.980133,243.188751 
	C344.223877,240.898895 344.309235,238.592178 344.463654,236.292831 
	C345.161316,236.290573 345.858978,236.288330 346.556641,236.286087 
	C346.704346,238.612549 346.932068,240.937286 346.982697,243.265869 
	C347.082336,247.846954 347.041626,247.847839 351.000000,247.178055 
	C351.000000,245.086151 351.028961,242.939667 350.992981,240.794296 
	C350.944275,237.889465 351.779266,234.631271 347.238007,233.020569 
M179.698685,235.318329 
	C177.633408,234.201065 175.568130,233.083801 174.781174,232.658081 
	C172.776382,230.387726 171.593628,229.048309 170.410873,227.708878 
	C170.015976,228.014099 169.621094,228.319305 169.226196,228.624512 
	C169.226196,234.900330 169.226196,241.176147 169.226196,247.411530 
	C172.646439,248.874420 172.977798,247.067093 173.044281,244.491425 
	C173.112366,241.853027 173.557449,239.224365 173.837540,236.591431 
	C174.558670,236.639908 175.279800,236.688370 176.000931,236.736847 
	C176.000931,239.118561 175.970810,241.500748 176.007645,243.881882 
	C176.071060,247.981613 176.088547,247.981339 179.931686,247.085739 
	C179.931686,243.471924 179.931686,239.817963 179.698685,235.318329 
M303.746338,233.363052 
	C300.660187,233.363052 297.574036,233.363052 294.292969,233.363052 
	C294.292969,238.251587 294.292969,242.965607 294.292969,248.034149 
	C296.011871,247.871017 297.388306,247.740387 298.712341,247.614731 
	C298.972687,243.611359 299.205627,240.029663 299.442505,236.386734 
	C304.918793,238.881577 298.634033,246.259186 304.371704,247.976212 
	C305.126373,247.734650 305.881042,247.493088 306.635712,247.251511 
	C305.880310,242.828934 305.124939,238.406342 303.746338,233.363052 
M378.281250,233.236069 
	C376.906586,233.236069 375.531952,233.236069 374.189941,233.236069 
	C373.547546,250.322723 375.922455,248.708252 385.686951,247.413452 
	C385.686951,242.715652 385.686951,237.995544 385.686951,232.365234 
	C378.983704,234.818222 384.614655,241.965271 380.174622,244.423508 
	C379.921783,244.214966 379.463531,244.021484 379.446960,243.795624 
	C379.206512,240.517487 379.025238,237.235001 378.281250,233.236069 
M326.111542,236.466949 
	C324.760712,235.316818 323.551270,233.447800 322.033020,233.149277 
	C317.180450,232.195160 315.650452,234.383652 316.122223,242.048126 
	C316.244019,244.026810 317.531921,247.226837 318.858551,247.556854 
	C321.282104,248.159790 324.134460,247.039291 326.807953,246.637619 
	C326.749023,245.959656 326.690125,245.281693 326.631195,244.603714 
	C325.423187,244.441742 324.206451,244.326385 323.009827,244.103256 
	C322.025177,243.919662 321.064392,243.608215 320.093018,243.353424 
	C320.196198,242.969650 320.299377,242.585876 320.402527,242.202103 
	C322.470886,242.056885 324.539276,241.911682 327.056549,241.734955 
	C326.856445,240.007050 326.693024,238.596085 326.111542,236.466949 
M414.851135,242.000000 
	C418.275360,242.519775 418.547333,240.082382 417.864563,238.025024 
	C417.248199,236.167831 415.830200,233.717972 414.231964,233.210556 
	C409.892944,231.832993 408.056244,234.964035 407.128448,238.639282 
	C406.259827,242.080200 408.469421,247.139404 411.079712,247.923889 
	C414.682159,249.006531 417.126770,247.700439 417.727631,244.002365 
	C416.384918,244.158600 415.134705,244.465714 413.913330,244.376724 
	C413.318970,244.333420 412.778564,243.550110 412.213715,243.101791 
	C412.825012,242.738632 413.436310,242.375473 414.851135,242.000000 
M279.050171,232.603775 
	C280.405548,232.073273 281.844910,231.688461 283.091980,230.969955 
	C284.263702,230.294876 285.232330,229.267303 286.290344,228.394821 
	C285.979797,228.069183 285.669281,227.743530 285.358734,227.417877 
	C281.989624,227.417877 278.620514,227.417877 275.280151,227.417877 
	C275.280151,234.435059 275.280151,241.031937 275.280151,248.035507 
	C282.124786,247.448547 276.959961,241.564682 280.038208,239.299911 
	C281.333405,239.068588 283.138947,238.746094 284.797180,238.449921 
	C284.797180,237.553848 284.887695,236.974335 284.783142,236.936691 
	C283.767670,236.571106 282.602509,236.488205 281.711487,235.945023 
	C280.691437,235.323212 279.906616,234.315536 279.050171,232.603775 
M188.236755,233.023834 
	C182.238785,233.255768 182.198395,233.744202 181.906738,241.912445 
	C181.685699,248.103149 185.430862,248.407974 189.549377,247.867844 
	C190.389633,247.757660 191.083694,246.532837 191.845154,245.821869 
	C190.960907,245.236526 190.138519,244.497482 189.174805,244.109604 
	C188.233139,243.730591 187.147217,243.709961 186.124619,243.532013 
	C186.181122,243.136719 186.237640,242.741425 186.294144,242.346130 
	C188.132996,242.082397 189.971848,241.818665 193.331238,241.336868 
	C191.661301,238.106079 190.367279,235.602524 188.236755,233.023834 
M332.011810,242.155273 
	C330.554962,236.311783 335.605499,236.952408 338.956757,235.136230 
	C336.121368,233.808304 333.305786,232.794495 330.848694,233.354340 
	C329.574707,233.644608 328.110718,236.757904 328.191437,238.529373 
	C328.332794,241.631546 329.069061,245.016312 330.681824,247.572403 
	C331.240173,248.457321 335.160248,247.315811 337.499664,246.865540 
	C337.800720,246.807602 338.175262,245.159180 337.877716,244.569595 
	C337.626862,244.072601 336.455414,244.018250 335.679443,243.813400 
	C334.477753,243.496140 333.265839,243.217529 332.011810,242.155273 
M308.013977,231.540924 
	C308.010193,235.226990 307.956879,238.913834 308.014099,242.598953 
	C308.100922,248.190063 309.316925,248.954269 315.165771,246.900177 
	C312.203308,242.791519 309.011353,238.565231 316.620422,233.659256 
	C312.044128,234.280365 312.568176,227.980164 308.013977,231.540924 
M161.182770,230.726685 
	C161.122665,234.744080 160.952988,238.763580 161.029572,242.778366 
	C161.130417,248.063431 162.281723,248.750519 168.217712,247.047531 
	C164.672943,242.830719 162.370331,238.499802 168.757080,234.078659 
	C166.043457,232.560501 163.912094,231.368088 161.182770,230.726685 
M392.960022,234.910492 
	C391.607025,234.136780 390.254059,233.363068 388.321930,232.258163 
	C388.321930,238.306747 388.321930,243.000137 388.321930,248.050171 
	C390.044952,247.872223 391.406067,247.731659 392.988281,247.568253 
	C392.988281,243.389450 392.988281,239.612686 392.960022,234.910492 
M288.000916,236.775833 
	C288.000916,240.369049 288.000916,243.962265 288.000916,247.555466 
	C288.495728,247.834625 288.990570,248.113800 289.485382,248.392960 
	C290.318665,247.404190 291.768585,246.474716 291.870392,245.415619 
	C292.184631,242.147476 292.094788,238.823608 291.908264,235.535782 
	C291.860046,234.686066 290.881409,233.889130 290.330200,233.067947 
	C289.555695,233.996094 288.781189,234.924255 288.000916,236.775833 
z"/>
<path fill="#00D100" opacity="1.000000" stroke="none" 
	d="
M257.708221,259.053070 
	C261.510498,260.657501 265.335205,261.670410 268.184021,263.919464 
	C272.347748,267.206573 272.066193,270.955811 267.255890,273.141205 
	C261.547272,275.734772 255.326569,278.442688 249.231720,278.685028 
	C236.724762,279.182343 224.014740,280.499390 211.653091,276.945435 
	C208.996704,276.181763 206.163956,275.395355 203.974014,273.832520 
	C201.968445,272.401245 199.455170,269.880371 199.496246,267.887665 
	C199.537521,265.885925 202.107651,262.823212 204.177383,262.179352 
	C211.150497,260.010040 218.376572,258.620819 225.560425,257.211243 
	C226.305862,257.064941 227.415192,258.773315 228.916504,260.126709 
	C219.931366,262.728088 210.919601,261.687408 203.954071,267.410278 
	C207.723312,273.053558 218.836044,275.759918 233.413544,274.732269 
	C230.929306,263.749939 228.506088,252.809784 225.895706,241.914474 
	C225.679306,241.011261 224.309814,240.144363 223.285522,239.711060 
	C210.067032,234.119278 201.993011,224.627625 199.948288,210.129150 
	C196.662094,186.827682 215.457993,169.882614 235.990707,169.990982 
	C252.625671,170.078796 267.618835,184.333725 270.354614,200.280289 
	C272.997040,215.682846 262.252625,234.774429 247.790237,239.238678 
	C246.217270,239.724213 244.528595,241.920593 244.083679,243.632675 
	C241.413300,253.908615 239.090988,264.274994 236.595779,274.849670 
	C247.172592,275.379822 257.358185,274.800476 267.110535,268.757843 
	C262.495209,263.927856 256.744904,263.023071 251.054199,262.013367 
	C248.796158,261.612732 246.449432,261.549683 244.278900,260.887604 
	C243.218597,260.564148 242.469650,259.220001 241.579773,258.337860 
	C241.875076,257.775238 242.170380,257.212646 242.465668,256.650024 
	C247.408569,257.438080 252.351471,258.226105 257.708221,259.053070 
M235.432846,232.993790 
	C245.065109,231.855118 252.878342,227.762039 258.242340,219.378174 
	C269.372406,201.982071 254.795105,176.944092 233.532318,178.972992 
	C223.889404,179.893127 216.568909,184.121201 211.683990,192.665161 
	C206.539398,201.663254 206.883575,210.560196 211.894745,219.289886 
	C216.862106,227.943268 224.948822,231.837799 235.432846,232.993790 
z"/>
<path fill="#00D100" opacity="1.000000" stroke="none" 
	d="
M229.204803,281.999329 
	C246.033966,282.046021 262.325195,281.538025 277.974060,276.030487 
	C280.898865,275.001160 283.711365,273.594055 286.464752,272.149780 
	C290.959045,269.792267 291.493896,266.071198 286.984650,264.220367 
	C278.759247,260.844299 270.099518,258.451630 261.496033,256.107178 
	C257.898468,255.126816 253.954712,255.481354 250.228531,254.865021 
	C249.241684,254.701782 248.478119,253.188629 247.612030,252.295319 
	C247.950195,251.573883 248.288361,250.852448 248.626526,250.131012 
	C257.250214,251.686569 265.970947,252.847946 274.462708,254.939148 
	C279.933228,256.286377 285.340698,258.504639 290.278412,261.233551 
	C295.576965,264.161926 295.187531,270.377563 290.526489,274.276672 
	C282.517700,280.976318 272.615326,282.359344 263.018463,283.778534 
	C252.439255,285.342957 241.596359,286.171417 230.922470,285.793030 
	C216.368942,285.277191 201.651016,284.518188 187.842773,278.973297 
	C184.547760,277.650146 181.200500,275.949158 178.548416,273.648315 
	C174.253662,269.922363 175.813843,263.591309 181.699814,260.134003 
	C189.897141,255.319016 199.019318,253.307587 208.311462,252.030746 
	C212.678818,251.430618 217.090210,251.150879 221.481644,250.725952 
	C221.768936,251.310257 222.056244,251.894562 222.343536,252.478851 
	C221.077560,253.316544 219.910797,254.622787 218.529388,254.915283 
	C210.061462,256.708313 201.514847,258.134430 193.060806,259.985779 
	C190.071274,260.640442 187.112183,261.867462 184.436142,263.364105 
	C182.723923,264.321716 180.345383,266.335266 180.441544,267.724854 
	C180.569260,269.570221 182.455460,272.126190 184.221741,272.872498 
	C189.917892,275.279297 195.775940,277.693695 201.811264,278.814667 
	C210.673935,280.460785 219.743591,280.992371 229.204803,281.999329 
z"/>
<path fill="#00D100" opacity="1.000000" stroke="none" 
	d="
M366.161316,237.967300 
	C368.316406,237.337814 370.374847,237.121368 372.392822,236.909180 
	C373.693878,245.283508 371.430115,248.362366 364.749573,247.997665 
	C360.861115,247.785400 358.960266,244.225159 359.001373,237.231293 
	C359.039490,230.746262 361.048096,227.196732 364.789490,227.002625 
	C370.445221,226.709198 370.852051,227.027725 373.128235,234.448792 
	C371.004028,233.595306 369.602753,232.988419 368.169098,232.471191 
	C367.158386,232.106583 365.780609,231.297745 365.128143,231.670364 
	C362.995178,232.888412 363.617432,242.615173 365.806610,243.806396 
	C366.262390,244.054398 367.019989,243.747742 368.072388,243.660889 
	C367.316956,241.674026 366.690796,240.027191 366.161316,237.967300 
z"/>
<path fill="#00D200" opacity="1.000000" stroke="none" 
	d="
M401.184265,247.996704 
	C395.009827,248.837631 394.756866,244.211838 394.212585,240.767761 
	C393.453278,235.963501 396.027069,233.467438 401.512390,232.531448 
	C403.056580,230.981873 400.008606,225.928726 405.728943,227.383331 
	C405.728943,233.937561 405.728943,240.520981 405.728943,247.645035 
	C404.426056,247.756760 403.026581,247.876755 401.184265,247.996704 
z"/>
<path fill="#00D100" opacity="1.000000" stroke="none" 
	d="
M347.659515,233.060699 
	C351.779266,234.631271 350.944275,237.889465 350.992981,240.794296 
	C351.028961,242.939667 351.000000,245.086151 351.000000,247.178055 
	C347.041626,247.847839 347.082336,247.846954 346.982697,243.265869 
	C346.932068,240.937286 346.704346,238.612549 346.556641,236.286087 
	C345.858978,236.288330 345.161316,236.290573 344.463654,236.292831 
	C344.309235,238.592178 344.223877,240.898895 343.980133,243.188751 
	C343.754547,245.308456 345.232849,248.811234 340.309998,247.657288 
	C340.309998,240.971436 340.309998,234.228210 340.309998,227.484985 
	C340.721466,227.210709 341.132965,226.936447 341.544434,226.662170 
	C342.363251,227.789948 343.833618,228.898422 343.867706,230.049438 
	C343.942871,232.587204 345.039825,233.246597 347.659515,233.060699 
z"/>
<path fill="#00D100" opacity="1.000000" stroke="none" 
	d="
M179.815186,235.741165 
	C179.931686,239.817963 179.931686,243.471924 179.931686,247.085739 
	C176.088547,247.981339 176.071060,247.981613 176.007645,243.881882 
	C175.970810,241.500748 176.000931,239.118561 176.000931,236.736847 
	C175.279800,236.688370 174.558670,236.639908 173.837540,236.591431 
	C173.557449,239.224365 173.112366,241.853027 173.044281,244.491425 
	C172.977798,247.067093 172.646439,248.874420 169.226196,247.411530 
	C169.226196,241.176147 169.226196,234.900330 169.226196,228.624512 
	C169.621094,228.319305 170.015976,228.014099 170.410873,227.708878 
	C171.593628,229.048309 172.776382,230.387726 174.781174,232.658081 
	C175.568130,233.083801 177.633408,234.201065 179.815186,235.741165 
z"/>
<path fill="#00D200" opacity="1.000000" stroke="none" 
	d="
M304.057922,233.673401 
	C305.124939,238.406342 305.880310,242.828934 306.635712,247.251511 
	C305.881042,247.493088 305.126373,247.734650 304.371704,247.976212 
	C298.634033,246.259186 304.918793,238.881577 299.442505,236.386734 
	C299.205627,240.029663 298.972687,243.611359 298.712341,247.614731 
	C297.388306,247.740387 296.011871,247.871017 294.292969,248.034149 
	C294.292969,242.965607 294.292969,238.251587 294.292969,233.363052 
	C297.574036,233.363052 300.660187,233.363052 304.057922,233.673401 
z"/>
<path fill="#00D200" opacity="1.000000" stroke="none" 
	d="
M378.555542,233.594818 
	C379.025238,237.235001 379.206512,240.517487 379.446960,243.795624 
	C379.463531,244.021484 379.921783,244.214966 380.177490,244.420319 
	C384.614655,241.965271 378.983704,234.818222 385.686951,232.365234 
	C385.686951,237.995544 385.686951,242.715652 385.686951,247.413452 
	C375.922455,248.708252 373.547546,250.322723 374.189941,233.236069 
	C375.531952,233.236069 376.906586,233.236069 378.555542,233.594818 
z"/>
<path fill="#00D100" opacity="1.000000" stroke="none" 
	d="
M326.320557,236.826035 
	C326.693024,238.596085 326.856445,240.007050 327.056549,241.734955 
	C324.539276,241.911682 322.470886,242.056885 320.402527,242.202103 
	C320.299377,242.585876 320.196198,242.969650 320.093018,243.353424 
	C321.064392,243.608215 322.025177,243.919662 323.009827,244.103256 
	C324.206451,244.326385 325.423187,244.441742 326.631195,244.603714 
	C326.690125,245.281693 326.749023,245.959656 326.807953,246.637619 
	C324.134460,247.039291 321.282104,248.159790 318.858551,247.556854 
	C317.531921,247.226837 316.244019,244.026810 316.122223,242.048126 
	C315.650452,234.383652 317.180450,232.195160 322.033020,233.149277 
	C323.551270,233.447800 324.760712,235.316818 326.320557,236.826035 
z"/>
<path fill="#00D100" opacity="1.000000" stroke="none" 
	d="
M414.449371,242.006165 
	C413.436310,242.375473 412.825012,242.738632 412.213715,243.101791 
	C412.778564,243.550110 413.318970,244.333420 413.913330,244.376724 
	C415.134705,244.465714 416.384918,244.158600 417.727631,244.002365 
	C417.126770,247.700439 414.682159,249.006531 411.079712,247.923889 
	C408.469421,247.139404 406.259827,242.080200 407.128448,238.639282 
	C408.056244,234.964035 409.892944,231.832993 414.231964,233.210556 
	C415.830200,233.717972 417.248199,236.167831 417.864563,238.025024 
	C418.547333,240.082382 418.275360,242.519775 414.449371,242.006165 
z"/>
<path fill="#00D100" opacity="1.000000" stroke="none" 
	d="
M279.034882,233.039642 
	C279.906616,234.315536 280.691437,235.323212 281.711487,235.945023 
	C282.602509,236.488205 283.767670,236.571106 284.783142,236.936691 
	C284.887695,236.974335 284.797180,237.553848 284.797180,238.449921 
	C283.138947,238.746094 281.333405,239.068588 280.038208,239.299911 
	C276.959961,241.564682 282.124786,247.448547 275.280151,248.035507 
	C275.280151,241.031937 275.280151,234.435059 275.280151,227.417877 
	C278.620514,227.417877 281.989624,227.417877 285.358734,227.417877 
	C285.669281,227.743530 285.979797,228.069183 286.290344,228.394821 
	C285.232330,229.267303 284.263702,230.294876 283.091980,230.969955 
	C281.844910,231.688461 280.405548,232.073273 279.034882,233.039642 
z"/>
<path fill="#00D200" opacity="1.000000" stroke="none" 
	d="
M188.654999,233.061401 
	C190.367279,235.602524 191.661301,238.106079 193.331238,241.336868 
	C189.971848,241.818665 188.132996,242.082397 186.294144,242.346130 
	C186.237640,242.741425 186.181122,243.136719 186.124619,243.532013 
	C187.147217,243.709961 188.233139,243.730591 189.174805,244.109604 
	C190.138519,244.497482 190.960907,245.236526 191.845154,245.821854 
	C191.083694,246.532837 190.389633,247.757660 189.549377,247.867844 
	C185.430862,248.407974 181.685699,248.103149 181.906738,241.912445 
	C182.198395,233.744202 182.238785,233.255768 188.654999,233.061401 
z"/>
<path fill="#00D200" opacity="1.000000" stroke="none" 
	d="
M332.035034,242.538910 
	C333.265839,243.217529 334.477753,243.496140 335.679443,243.813400 
	C336.455414,244.018250 337.626862,244.072601 337.877716,244.569595 
	C338.175262,245.159180 337.800720,246.807602 337.499664,246.865540 
	C335.160248,247.315811 331.240173,248.457321 330.681824,247.572403 
	C329.069061,245.016312 328.332794,241.631546 328.191437,238.529373 
	C328.110718,236.757904 329.574707,233.644608 330.848694,233.354340 
	C333.305786,232.794495 336.121368,233.808304 338.956757,235.136230 
	C335.605499,236.952408 330.554962,236.311783 332.035034,242.538910 
z"/>
<path fill="#00D200" opacity="1.000000" stroke="none" 
	d="
M308.097229,231.139404 
	C312.568176,227.980164 312.044128,234.280365 316.620422,233.659256 
	C309.011353,238.565231 312.203308,242.791519 315.165771,246.900177 
	C309.316925,248.954269 308.100922,248.190063 308.014099,242.598953 
	C307.956879,238.913834 308.010193,235.226990 308.097229,231.139404 
z"/>
<path fill="#00D100" opacity="1.000000" stroke="none" 
	d="
M161.481750,230.451172 
	C163.912094,231.368088 166.043457,232.560501 168.757080,234.078659 
	C162.370331,238.499802 164.672943,242.830719 168.217712,247.047531 
	C162.281723,248.750519 161.130417,248.063431 161.029572,242.778366 
	C160.952988,238.763580 161.122665,234.744080 161.481750,230.451172 
z"/>
<path fill="#00D100" opacity="1.000000" stroke="none" 
	d="
M392.974152,235.373199 
	C392.988281,239.612686 392.988281,243.389450 392.988281,247.568253 
	C391.406067,247.731659 390.044952,247.872223 388.321930,248.050171 
	C388.321930,243.000137 388.321930,238.306747 388.321930,232.258163 
	C390.254059,233.363068 391.607025,234.136780 392.974152,235.373199 
z"/>
<path fill="#00D100" opacity="1.000000" stroke="none" 
	d="
M288.003784,236.314117 
	C288.781189,234.924255 289.555695,233.996094 290.330200,233.067947 
	C290.881409,233.889130 291.860046,234.686066 291.908264,235.535782 
	C292.094788,238.823608 292.184631,242.147476 291.870392,245.415619 
	C291.768585,246.474716 290.318665,247.404190 289.485382,248.392960 
	C288.990570,248.113800 288.495728,247.834625 288.000916,247.555466 
	C288.000916,243.962265 288.000916,240.369049 288.003784,236.314117 
z"/>
<path fill="#000000" opacity="1.000000" stroke="none" 
	d="
M235.002258,232.993774 
	C224.948822,231.837799 216.862106,227.943268 211.894745,219.289886 
	C206.883575,210.560196 206.539398,201.663254 211.683990,192.665161 
	C216.568909,184.121201 223.889404,179.893127 233.532318,178.972992 
	C254.795105,176.944092 269.372406,201.982071 258.242340,219.378174 
	C252.878342,227.762039 245.065109,231.855118 235.002258,232.993774 
z"/>
</svg>