<?xml version="1.0" standalone="no"?>
<!DOCTYPE svg PUBLIC "-//W3C//DTD SVG 20010904//EN"
 "http://www.w3.org/TR/2001/REC-SVG-20010904/DTD/svg10.dtd">
<svg version="1.0" xmlns="http://www.w3.org/2000/svg"
 width="700.000000pt" height="700.000000pt" viewBox="0 0 700.000000 700.000000"
 preserveAspectRatio="xMidYMid meet">
<metadata>
Created by potrace 1.14, written by Peter Selinger 2001-2017
</metadata>
<g transform="translate(0.000000,700.000000) scale(0.100000,-0.100000)"
fill="#000000" stroke="none">
<path d="M3176 4604 c-119 -29 -243 -115 -306 -214 -101 -157 -98 -382 8 -546
47 -73 104 -123 199 -176 40 -22 76 -45 80 -51 12 -20 110 -451 105 -461 -3
-5 -52 -6 -111 -3 -119 6 -219 33 -266 71 -25 20 -27 26 -16 39 20 25 105 53
216 71 55 10 103 21 108 25 4 4 -1 15 -11 25 -18 16 -26 15 -142 -9 -165 -35
-210 -53 -233 -92 -16 -29 -17 -35 -4 -60 50 -96 240 -141 547 -129 181 6 230
15 339 60 79 32 101 51 101 88 0 37 -29 64 -107 100 -81 36 -278 72 -294 52
-16 -20 34 -51 97 -59 121 -15 244 -63 244 -96 0 -16 -108 -60 -188 -75 -41
-8 -109 -14 -152 -14 -69 0 -78 2 -74 18 50 223 108 440 121 455 10 10 42 30
73 45 76 35 178 139 218 222 104 214 76 399 -85 571 -126 134 -293 185 -467
143z m246 -130 c111 -39 200 -141 234 -269 52 -193 -74 -394 -281 -450 -80
-22 -159 -13 -249 28 -142 65 -239 248 -208 394 49 236 285 375 504 297z"/>
<path d="M3474 3485 c-12 -31 23 -52 99 -59 117 -11 428 -106 469 -143 38 -34
13 -71 -79 -117 -146 -73 -364 -109 -653 -109 -252 0 -456 24 -604 74 -112 37
-157 64 -170 102 -23 64 75 111 342 163 191 36 244 56 228 83 -9 13 -48 11
-225 -15 -186 -28 -353 -95 -391 -157 -31 -50 -26 -103 11 -138 67 -62 242
-123 439 -150 59 -9 190 -14 350 -14 217 0 276 4 397 23 78 12 165 30 195 38
117 35 219 108 234 170 25 97 -132 174 -471 234 -66 11 -130 23 -143 25 -15 4
-25 0 -28 -10z"/>
</g>
</svg>
