<svg version="1.1" id="Layer_1" xmlns="http://www.w3.org/2000/svg" xmlns:xlink="http://www.w3.org/1999/xlink" x="0px" y="0px"
	 width="100%" viewBox="0 0 500 500" enable-background="new 0 0 500 500" xml:space="preserve">

<path fill="#00D100" opacity="1.000000" stroke="none" 
	d="
M257.708221,259.053070 
	C261.510498,260.657501 265.335205,261.670410 268.184021,263.919464 
	C272.347748,267.206573 272.066193,270.955811 267.255890,273.141205 
	C261.547272,275.734772 255.326569,278.442688 249.231720,278.685028 
	C236.724762,279.182343 224.014740,280.499390 211.653091,276.945435 
	C208.996704,276.181763 206.163956,275.395355 203.974014,273.832520 
	C201.968445,272.401245 199.455170,269.880371 199.496246,267.887665 
	C199.537521,265.885925 202.107651,262.823212 204.177383,262.179352 
	C211.150497,260.010040 218.376572,258.620819 225.560425,257.211243 
	C226.305862,257.064941 227.415192,258.773315 228.916504,260.126709 
	C219.931366,262.728088 210.919601,261.687408 203.954071,267.410278 
	C207.723312,273.053558 218.836044,275.759918 233.413544,274.732269 
	C230.929306,263.749939 228.506088,252.809784 225.895706,241.914474 
	C225.679306,241.011261 224.309814,240.144363 223.285522,239.711060 
	C210.067032,234.119278 201.993011,224.627625 199.948288,210.129150 
	C196.662094,186.827682 215.457993,169.882614 235.990707,169.990982 
	C252.625671,170.078796 267.618835,184.333725 270.354614,200.280289 
	C272.997040,215.682846 262.252625,234.774429 247.790237,239.238678 
	C246.217270,239.724213 244.528595,241.920593 244.083679,243.632675 
	C241.413300,253.908615 239.090988,264.274994 236.595779,274.849670 
	C247.172592,275.379822 257.358185,274.800476 267.110535,268.757843 
	C262.495209,263.927856 256.744904,263.023071 251.054199,262.013367 
	C248.796158,261.612732 246.449432,261.549683 244.278900,260.887604 
	C243.218597,260.564148 242.469650,259.220001 241.579773,258.337860 
	C241.875076,257.775238 242.170380,257.212646 242.465668,256.650024 
	C247.408569,257.438080 252.351471,258.226105 257.708221,259.053070 
M235.432846,232.993790 
	C245.065109,231.855118 252.878342,227.762039 258.242340,219.378174 
	C269.372406,201.982071 254.795105,176.944092 233.532318,178.972992 
	C223.889404,179.893127 216.568909,184.121201 211.683990,192.665161 
	C206.539398,201.663254 206.883575,210.560196 211.894745,219.289886 
	C216.862106,227.943268 224.948822,231.837799 235.432846,232.993790 
z"/>
<path fill="#00D100" opacity="1.000000" stroke="none" 
	d="
M229.204803,281.999329 
	C246.033966,282.046021 262.325195,281.538025 277.974060,276.030487 
	C280.898865,275.001160 283.711365,273.594055 286.464752,272.149780 
	C290.959045,269.792267 291.493896,266.071198 286.984650,264.220367 
	C278.759247,260.844299 270.099518,258.451630 261.496033,256.107178 
	C257.898468,255.126816 253.954712,255.481354 250.228531,254.865021 
	C249.241684,254.701782 248.478119,253.188629 247.612030,252.295319 
	C247.950195,251.573883 248.288361,250.852448 248.626526,250.131012 
	C257.250214,251.686569 265.970947,252.847946 274.462708,254.939148 
	C279.933228,256.286377 285.340698,258.504639 290.278412,261.233551 
	C295.576965,264.161926 295.187531,270.377563 290.526489,274.276672 
	C282.517700,280.976318 272.615326,282.359344 263.018463,283.778534 
	C252.439255,285.342957 241.596359,286.171417 230.922470,285.793030 
	C216.368942,285.277191 201.651016,284.518188 187.842773,278.973297 
	C184.547760,277.650146 181.200500,275.949158 178.548416,273.648315 
	C174.253662,269.922363 175.813843,263.591309 181.699814,260.134003 
	C189.897141,255.319016 199.019318,253.307587 208.311462,252.030746 
	C212.678818,251.430618 217.090210,251.150879 221.481644,250.725952 
	C221.768936,251.310257 222.056244,251.894562 222.343536,252.478851 
	C221.077560,253.316544 219.910797,254.622787 218.529388,254.915283 
	C210.061462,256.708313 201.514847,258.134430 193.060806,259.985779 
	C190.071274,260.640442 187.112183,261.867462 184.436142,263.364105 
	C182.723923,264.321716 180.345383,266.335266 180.441544,267.724854 
	C180.569260,269.570221 182.455460,272.126190 184.221741,272.872498 
	C189.917892,275.279297 195.775940,277.693695 201.811264,278.814667 
	C210.673935,280.460785 219.743591,280.992371 229.204803,281.999329 
z"/>
</svg>